<svg xmlns="http://www.w3.org/2000/svg" width="1400" height="1500" viewBox="0 0 1400 1500">
<defs><filter id="rough" x="-30%" y="-30%" width="160%" height="160%"><feTurbulence type="fractalNoise" baseFrequency=".035 .15" numOctaves="3" seed="12" result="noise"/><feDisplacementMap in="SourceGraphic" in2="noise" scale="38" xChannelSelector="R" yChannelSelector="G"/></filter><filter id="grain"><feTurbulence type="fractalNoise" baseFrequency=".6" numOctaves="3" stitchTiles="stitch"/><feColorMatrix type="saturate" values="0"/></filter></defs>
<g filter="url(#rough)" fill="none" stroke-linecap="square">
<path d="M-100 290L290 -90M-80 405L400 -65M1060 1560L1470 1180" stroke="#074aca" stroke-width="85"/>
<path d="M-100 160L200 -65M-50 350L370 -70M1120 1520L1470 1200" stroke="#08c9ce" stroke-width="38"/>
<path d="M-50 510L150 295M1200 1570L1510 1240" stroke="#12368a" stroke-width="35"/>
<path d="M-80 630L95 470M1310 320L1460 155M1280 1490L1460 1310" stroke="#21cbd0" stroke-width="25"/>
<path d="M-50 195L230 -55M-40 830L115 645M1320 180L1450 20M1000 1550L1320 1290" stroke="#ffe1a1" stroke-width="30"/>
<path d="M-25 1030L105 880M1310 610L1440 460M1330 930L1430 815" stroke="#04b5ca" stroke-width="14"/>
</g><g fill="#113d96"><circle cx="100" cy="420" r="5"/><circle cx="40" cy="600" r="9"/><circle cx="1260" cy="1120" r="6"/><circle cx="1340" cy="1030" r="9"/><circle cx="1300" cy="720" r="4"/><circle cx="160" cy="120" r="7"/><circle cx="1210" cy="1390" r="7"/></g><rect width="1400" height="1500" filter="url(#grain)" opacity=".055"/>
</svg>
